<?xml version="1.0" encoding="UTF-8" standalone="no"?>
<!-- Created with Inkscape (http://www.inkscape.org/) -->

<svg
   width="133.35194mm"
   height="65.119415mm"
   viewBox="0 0 133.35194 65.119415"
   version="1.1"
   id="svg1"
   inkscape:version="1.4.2 (2aeb623e1d, 2025-05-12)"
   sodipodi:docname="wild-cloud.svg"
   inkscape:export-filename="wild-cloud.svg"
   inkscape:export-xdpi="96"
   inkscape:export-ydpi="96"
   xml:space="preserve"
   xmlns:inkscape="http://www.inkscape.org/namespaces/inkscape"
   xmlns:sodipodi="http://sodipodi.sourceforge.net/DTD/sodipodi-0.dtd"
   xmlns="http://www.w3.org/2000/svg"
   xmlns:svg="http://www.w3.org/2000/svg"><sodipodi:namedview
     id="namedview1"
     pagecolor="#ffffff"
     bordercolor="#000000"
     borderopacity="0.25"
     inkscape:showpageshadow="2"
     inkscape:pageopacity="0.0"
     inkscape:pagecheckerboard="0"
     inkscape:deskcolor="#d1d1d1"
     inkscape:document-units="mm"
     inkscape:zoom="1.2674155"
     inkscape:cx="-166.08602"
     inkscape:cy="302.97878"
     inkscape:window-width="3840"
     inkscape:window-height="2160"
     inkscape:window-x="0"
     inkscape:window-y="0"
     inkscape:window-maximized="1"
     inkscape:current-layer="group-R5"><inkscape:page
       x="0"
       y="0"
       width="133.35194"
       height="65.119415"
       id="page2"
       margin="0"
       bleed="0" /></sodipodi:namedview><defs
     id="defs1" /><g
     inkscape:label="Layer 1"
     inkscape:groupmode="layer"
     id="layer1"
     transform="translate(-37.569685,-31.116167)"><path
       style="font-size:29.7292px;font-family:Megrim;-inkscape-font-specification:Megrim;fill:#37abc8;stroke-width:2.47743"
       d="m 40.222929,73.584033 v -0.99933 h 17.750215 l -6.765777,23.35108 -3.44922,-11.85875 -3.422687,11.85875 -6.765777,-23.35108 h 0.849039 l 5.916738,20.4197 3.422687,-11.85875 3.44922,11.85875 5.624881,-19.42037 z m 20.721837,2.998 h 0.795974 v 19.32044 h -0.795974 z m 14.698964,18.3211 v 0.99934 h -8.861841 v -19.32044 h 0.795974 v 18.3211 z m 5.067683,0.99934 h -2.016467 v -19.32044 h 2.016467 q 3.926804,0 6.261661,2.59827 2.334855,2.59826 2.334855,7.06195 0,4.46369 -2.334855,7.06195 -2.334857,2.59827 -6.261661,2.59827 z m 0,-0.99934 q 3.581882,0 5.677946,-2.29846 2.122597,-2.29847 2.122597,-6.36242 0,-4.06396 -2.122597,-6.36242 -2.096064,-2.29847 -5.677946,-2.29847 H 79.49092 v 17.32177 z m 32.104217,-3.26448 q -0.71638,2.19853 -2.01647,3.39773 -1.30009,1.1992 -3.90027,1.1992 -3.26349,0 -4.72278,-2.49834 -1.45928,-2.53164 -1.45928,-7.86141 v -3.26449 q 0,-5.32978 1.45928,-7.82811 1.45929,-2.53164 4.72278,-2.53164 2.60018,0 3.90027,1.1992 1.30009,1.1992 2.01647,3.39773 l -0.71638,0.43304 q -0.61024,-1.93204 -1.72461,-2.96469 -1.11436,-1.06595 -3.47575,-1.06595 -1.30009,0 -2.22872,0.43304 -0.92864,0.39974 -1.67155,1.39907 -0.74291,0.99933 -1.11436,2.89807 -0.37146,1.86542 -0.37146,4.63024 v 3.26449 q 0,2.76482 0.37146,4.66355 0.37145,1.86542 1.11436,2.86475 0.74291,0.99934 1.67155,1.43238 0.92863,0.39973 2.22872,0.39973 2.36139,0 3.47575,-1.03264 1.11437,-1.06595 1.72461,-2.998 z m 12.81518,3.26448 v 0.99934 h -8.86185 v -19.32044 h 0.79597 v 18.3211 z m 10.79869,-17.28846 q -0.90211,-0.36642 -2.22873,-0.36642 -1.32662,0 -2.22872,0.36642 -0.9021,0.33311 -1.67155,1.29914 -0.74291,0.93271 -1.11436,2.76482 -0.37146,1.7988 -0.37146,4.56362 0,2.76482 0.37146,4.59693 0.37145,1.7988 1.11436,2.76482 0.76945,0.93271 1.67155,1.29913 0.9021,0.33311 2.22872,0.33311 1.32662,0 2.22873,-0.33311 0.90211,-0.36642 1.64502,-1.29913 0.76943,-0.96602 1.14089,-2.76482 0.37145,-1.83211 0.37145,-4.59693 0,-2.76482 -0.37145,-4.56362 -0.37146,-1.83211 -1.14089,-2.76482 -0.74291,-0.96603 -1.64502,-1.29914 z m 2.52058,16.25582 q -1.43275,2.36509 -4.74931,2.36509 -3.31656,0 -4.7493,-2.36509 -1.43276,-2.36509 -1.43276,-7.62824 0,-5.26316 1.43276,-7.62824 1.43274,-2.36509 4.7493,-2.36509 3.31656,0 4.74931,2.36509 1.43276,2.36508 1.43276,7.62824 0,5.26315 -1.43276,7.62824 z m 6.34123,-17.28846 v 9.66022 q 0,4.96335 1.24703,6.99533 1.27356,1.99866 3.47575,1.99866 2.2022,0 3.44922,-1.99866 1.27356,-2.03198 1.27356,-6.99533 v -9.66022 h 0.79597 v 9.66022 q 0,9.99333 -5.51875,9.99333 -5.51875,0 -5.51875,-9.99333 v -9.66022 z m 17.0338,19.32044 h -2.01646 v -19.32044 h 2.01646 q 3.92681,0 6.26166,2.59827 2.33486,2.59826 2.33486,7.06195 0,4.46369 -2.33486,7.06195 -2.33485,2.59827 -6.26166,2.59827 z m 0,-0.99934 q 3.58188,0 5.67795,-2.29846 2.1226,-2.29847 2.1226,-6.36242 0,-4.06396 -2.1226,-6.36242 -2.09607,-2.29847 -5.67795,-2.29847 h -1.22049 v 17.32177 z"
       id="text1"
       aria-label="Wild Cloud" /><g
       id="group-R5"
       transform="matrix(0.26458333,0,0,0.26458333,-230.54026,-314.67779)"><path
         id="path8-2-3"
         d="m 1336.148,1867.1839 c -73.3727,-2.5491 -209.9452,1.1472 -215.4664,1.1488 -2.3175,-0.048 -3.5516,-1.7996 -4.067,-2.3652 -12.0561,-18.8607 4.4547,-35.4847 19.179,-36.2116 0.4935,-0.019 3.4796,-0.4713 3.8833,-0.8707 0.1923,-0.3852 -0.012,-0.6389 -0.1678,-0.8926 -11.1441,-21.5051 15.0326,-48.5141 40.8513,-37.1707 0.2227,0.1927 0.4767,0.3524 0.6813,0.5027 0.3778,-0.1597 0.4972,-0.4275 0.5689,-0.7375 4.0129,-17.3374 19.5046,-43.3167 56.1338,-51.8796 24.5821,18.0959 41.6306,48.3416 19.2379,83.3092 -0.3116,0.3806 -0.7874,0.7423 -0.503,1.4846 13.3528,-3.0133 28.4496,6.2317 30.7892,21.8363 25.1638,-8.5087 50.4298,16.8268 48.8795,21.8458"
         style="fill:#37abc8;fill-opacity:1;fill-rule:nonzero;stroke:none;stroke-width:0.0461626"
         sodipodi:nodetypes="cccccccccccccc" /><path
         id="path9-2-1"
         d="m 1336.148,1867.1839 c 1.4273,-4.6208 -23.3404,-30.4813 -48.8795,-21.8457 -2.3396,-15.605 -17.4366,-24.8496 -30.7892,-21.8364 -0.2844,-0.7423 0.1914,-1.104 0.503,-1.4845 20.9213,-39.1965 -5.8542,-73.5592 -19.2379,-83.3098 39.7129,-8.796 97.4896,15.4719 88.3768,66.3076 -0.22,1.2309 0.055,1.5034 1.3409,1.245 2.0611,-0.4181 4.1254,-0.8174 6.2274,-0.8315 22.1115,-0.1505 37.5654,18.6506 32.4666,38.5096 -0.1148,0.4463 -0.2509,0.902 0.022,1.3389 0.4238,0.1973 0.7081,-0.066 1.0011,-0.3054 5.7349,-4.6557 12.2912,-7.3899 19.4026,-8.743 12.761,-2.4336 24.9342,-0.5731 36.4133,5.6987 12.4785,6.8215 19.0194,16.9521 20.3783,23.1142 0.2395,1.0853 -0.4301,2.7622 -2.0116,2.532 -31.6867,1.2373 -104.2264,-0.01 -105.2135,-0.3892"
         style="fill:#87cdde;fill-opacity:1;fill-rule:nonzero;stroke:none;stroke-width:0.0461626"
         sodipodi:nodetypes="cccccccccccccccc" /><path
         id="path3"
         d="m 700.98013,1502.803 c 1.58761,0.075 3.08442,-0.5262 4.66293,-0.639 3.27956,-0.2395 6.42751,0.075 9.39856,1.5692 4.53139,2.2785 7.16682,6.2953 8.87233,10.9839 1.4878,4.1014 2.43582,8.339 1.43335,12.7739 -0.0317,0.1457 -0.0317,0.3054 -0.0361,0.4651 -0.0635,1.4 0.0998,1.5832 1.34718,1.1651 1.79168,-0.5919 3.60609,-0.9866 5.46585,-1.3013 7.05339,-1.184 13.01366,1.2544 18.2799,5.8537 3.52446,3.0772 5.98746,6.9248 7.02166,11.6699 0.58514,2.7013 0.25399,5.4167 0.28579,8.1275 0.0137,1.1651 -0.8074,1.1135 -1.56489,1.1416 -3.89642,0.1363 -7.79278,0.3524 -11.6892,0.5168 -9.90199,0.4134 -19.81306,0.2208 -29.71504,0.5027 -23.19697,0.653 -46.39841,0.2067 -69.5953,0.2725 -38.6781,0.1128 -77.35627,-0.056 -116.03436,0.2443 -14.78725,0.1175 -29.57904,0.4275 -44.36174,0.1362 -23.05173,-0.451 -46.09898,-0.084 -69.14617,-0.2067 -2.98922,-0.019 -5.96027,0.39 -8.97214,0.033 -2.6399,-0.3148 -3.3203,-0.8221 -3.09804,-3.6175 0.2268,-2.7906 0.97521,-5.4872 1.75541,-8.1651 2.61272,-9.0202 6.51361,-17.3592 12.21535,-24.7538 8.68181,-11.2612 19.53636,-19.0552 33.33931,-21.7612 9.6661,-1.898 18.77432,0.2255 27.23842,5.3745 2.14101,1.3014 4.09596,2.8705 6.05553,4.4349 0.34017,0.2725 0.59877,0.7376 1.261,0.5356 0.34016,-2.457 0.60331,-4.9799 1.05237,-7.4604 1.06138,-5.8678 3.05715,-11.3645 6.37752,-16.2927 4.57676,-6.7934 10.79556,-11.1437 18.52488,-13.1404 9.65247,-2.4993 18.75168,-0.8315 27.30194,4.2611 3.22959,1.9215 5.80602,4.637 7.86533,7.8645 1.40162,2.194 2.82134,4.3786 4.24113,6.5819 0.74386,-0.155 0.81194,-0.8644 1.09319,-1.3625 1.71907,-3.0254 3.52893,-5.9617 6.08272,-8.3389 3.4791,-3.2416 7.70206,-4.7074 12.20172,-5.5013 0.88456,-0.1598 1.77806,-0.2397 2.73517,-0.6954 -0.76204,-1.6725 -1.46963,-3.3543 -2.03667,-5.0973 -3.04359,-9.2927 -1.27455,-17.6505 4.78546,-25.0075 2.29065,-2.7812 5.1347,-5.0034 8.63197,-6.0934 1.55126,-0.4838 1.60117,-0.5402 0.77113,-2.0436 -2.1002,-3.7913 -3.24776,-7.8221 -3.07086,-12.2242 0.25399,-6.3423 2.33146,-11.9706 6.08719,-16.9645 4.22304,-5.6047 9.8249,-9.2645 15.94397,-12.2054 5.4885,-2.645 11.28089,-4.2095 17.26835,-4.9377 3.0573,-0.3758 6.15989,-0.31 9.22166,-0.014 3.58337,0.3476 7.10783,1.0852 10.58238,2.0858 9.70238,2.7766 17.78549,8.1323 24.04511,16.3022 5.52484,7.2114 9.66617,15.1886 11.55312,24.2464 2.34055,11.2235 2.02757,22.3625 -1.58306,33.3089 -1.0841,3.2839 -1.06593,3.3825 2.10012,2.7013 2.88487,-0.6154 5.57922,0.1316 8.1103,1.2168 8.03321,3.4483 13.76668,9.3303 16.47011,18.0122 1.54225,4.9423 1.76905,9.9222 -0.6804,14.7189 -0.10435,0.1926 -0.0953,0.451 -0.13608,0.6765 -0.0591,0.085 -0.11791,0.1644 -0.1769,0.249 0.0725,-0.07 0.14517,-0.1363 0.21772,-0.202"
         style="fill:#96cae4;fill-opacity:1;fill-rule:nonzero;stroke:none;stroke-width:0.0461626" /><path
         id="path4"
         d="m 139.0308,1978.6034 c -0.78057,-0.2396 -1.01963,0.2538 -1.32266,0.545 -4.05104,3.9369 -8.93536,6.2155 -14.38218,6.3987 -6.05322,0.202 -12.0166,-0.5074 -17.76781,-3.1477 -8.796108,-4.0403 -15.309278,-10.4812 -20.333288,-18.778 -0.11748,-0.1926 -0.26949,-0.3664 -0.48858,-0.6577 -2.09969,1.3061 -4.11363,2.7578 -6.44423,3.6316 -3.77665,1.4188 -7.69341,2.0155 -11.46601,0.6719 -5.63547,-2.0014 -10.3597,-5.3746 -12.19401,-11.7169 -0.34701,-1.2027 -0.80696,-1.649 -1.99267,-1.5786 -2.16863,0.1175 -4.3382,0.1973 -6.50769,0.3336 -4.00481,0.2491 -7.90622,-0.592 -11.65517,-2.0812 -1.32539,-0.5262 -2.62901,-1.0853 -3.84652,-1.9027 -3.09984,-2.0766 -3.8696,-6.8074 -0.96165,-9.8611 4.71745,-4.9518 10.43456,-7.7142 16.81302,-9.3256 5.97888,-1.5127 12.02576,-2.5275 18.17923,-2.8939 1.93642,-0.1128 3.85063,-0.5967 5.78655,-0.7611 1.09679,-0.094 1.50006,-0.4792 1.66513,-1.6443 0.39418,-2.8001 1.28638,-5.4732 3.02643,-7.6907 3.71354,-4.7356 8.26816,-7.8597 14.45249,-7.6013 1.66015,0.07 3.29896,0.3899 4.82483,1.0194 1.22292,0.5027 1.60484,-0.01 1.90015,-1.0618 0.81417,-2.9174 1.93959,-5.708 3.20239,-8.4516 3.467268,-7.5263 9.333648,-11.7545 17.079698,-13.3941 3.53715,-0.7516 7.09016,-1.259 10.62097,0.1033 7.55191,2.9175 11.90057,8.5927 13.5194,16.9928 7.9184,-11.5995 17.95243,-12.1726 29.49286,-6.0699 -1.14987,-5.0597 -0.3375,-9.5557 2.93564,-13.3282 3.20694,-3.6974 7.59006,-4.7638 12.09059,-5.4074 0.293,-0.7329 -0.1805,-1.2262 -0.41733,-1.7665 -1.64197,-3.7396 -2.56144,-7.7 -2.32598,-11.7638 0.52615,-9.086 2.9016,-17.4578 9.84977,-23.7203 5.20416,-4.6933 11.26604,-7.6249 17.96469,-9.1987 5.26538,-1.2308 10.58196,-2.0389 15.97613,-2.4899 7.10791,-0.6014 13.92266,0.3758 20.39733,3.3967 8.02319,3.7396 13.25178,10.2698 16.39656,18.6276 1.91601,5.0926 2.73927,10.4531 3.23326,15.8933 0.26805,2.9504 0.3411,5.8867 0.33836,8.837 0,1.4752 -0.0382,2.941 -0.30209,4.4067 -0.19774,1.1041 -0.29985,2.2692 -0.0505,3.3309 0.5674,0.2538 0.84367,-0.061 1.14576,-0.2677 6.00376,-4.0968 12.64991,-6.4269 19.73777,-7.2726 3.6415,-0.4369 7.336,-0.3899 10.96387,0.5403 5.92992,1.5221 9.80492,5.4497 12.24348,11.0826 2.29887,5.3087 3.41787,10.89 3.5916,16.7014 0.16283,5.4638 -1.29821,10.4249 -3.9808,15.0618 -0.87814,1.5175 -1.76768,3.0256 -2.82271,4.8296 1.90736,0.2396 3.61835,0.1597 5.25261,0.6577 4.88706,1.4846 9.21026,3.8524 11.95862,8.4846 2.09565,3.5376 3.28634,7.3195 1.88832,11.5149 -0.11927,0.357 -0.20408,0.7516 0.15563,1.2214 1.98308,-0.202 4.06329,-0.3993 6.12988,-0.07 4.5976,0.7282 7.81997,3.3966 9.79173,7.6859 2.8817,6.2766 2.31336,12.3323 -1.21514,18.1625 -0.44682,0.7376 -1.01241,1.3719 -1.66245,1.8886 -4.9886,3.9698 -10.46903,6.6712 -16.90641,6.69 -1.46335,0 -2.29159,0.4651 -3.26045,1.7758 -4.40259,5.9618 -10.04939,9.786 -17.63267,9.3819 -3.32073,-0.1785 -6.16847,-1.8228 -8.78659,-3.8523 -2.49798,-1.9356 -2.46711,-1.9402 -5.0204,-0.1644 -7.45305,5.1772 -15.49253,6.206 -24.07965,3.7396 -5.39006,-1.5457 -9.86658,-4.449 -13.33976,-9.0014 -0.13017,-0.1691 -0.32798,-0.2819 -0.66901,-0.5731 -4.19491,6.704 -10.21136,10.2745 -17.75469,11.2517 -7.43401,0.963 -14.39805,0.1691 -20.07116,-5.5155 -0.96165,0.2302 -1.14669,1.0805 -1.52003,1.6913 -6.42246,10.5752 -15.50572,16.8329 -27.55096,18.3739 -8.20916,1.0477 -16.14711,0.038 -23.79883,-3.2276 -8.81976,-3.7583 -14.7623,-10.406 -18.15385,-19.5718 -1.09499,-2.9598 -1.93231,-5.99 -1.92055,-9.1142"
         style="fill:#96cae4;fill-opacity:1;fill-rule:nonzero;stroke:none;stroke-width:0.0461626" /><path
         id="path5"
         d="m 657.97927,1901.4809 c 3.28402,-1.6678 6.49543,-2.894 9.91554,-3.5141 6.82666,-1.2356 12.90938,0.4604 18.40243,4.7779 4.30459,3.3825 6.63605,8.1369 8.72716,13.0745 1.64659,3.8758 2.47663,7.9679 2.72615,12.1819 0.0678,1.151 0.46262,1.5081 1.52861,1.2967 5.13017,-1.0195 9.40303,1.0336 13.38109,4.0685 4.56312,3.4812 7.12146,8.2967 8.50036,13.8779 0.3357,1.353 0.64413,2.7155 0.95257,4.0732 0.35833,1.5644 0.35833,1.6161 1.94594,1.4094 1.41063,-0.1832 2.80324,-0.4604 4.24113,-0.4229 4.49058,0.1175 8.70899,1.2732 12.05655,4.4068 3.99616,3.7396 6.44561,8.4141 5.70167,14.2256 -0.61686,4.8671 -4.10498,8.2591 -8.81788,8.898 -2.00486,0.2725 -4.01888,0.4745 -6.02828,0.6718 -1.134,0.1128 -1.86431,0.5826 -2.3632,1.7523 -1.49688,3.4907 -4.14139,5.8209 -7.41179,7.4887 -3.12531,1.602 -6.4138,2.6403 -9.86571,3.0255 -2.51291,0.2772 -4.93055,-0.4463 -7.24392,-1.3436 -1.28371,-0.498 -2.19993,-0.3289 -3.31128,0.4557 -6.59979,4.6699 -14.03423,6.0933 -21.85881,5.6 -2.83951,-0.1738 -5.62912,-0.9725 -8.22366,-2.2456 -1.0342,-0.5121 -1.65561,-0.2912 -2.29519,0.5684 -6.3277,8.5129 -15.44494,11.6136 -25.01584,13.8827 -3.45184,0.8175 -6.98084,1.2356 -10.46903,1.2214 -3.42011,-0.01 -6.89012,-0.1785 -10.29205,-0.8597 -3.16612,-0.6342 -6.31407,-1.3436 -9.41211,-2.2457 -5.86956,-1.7053 -11.12217,-4.5993 -15.58556,-8.959 -2.51298,-2.4571 -4.79908,-5.1303 -7.02165,-7.8692 -0.88002,-1.0852 -1.07956,-1.1135 -1.76905,0.085 -1.34717,2.3489 -3.43374,3.6456 -5.75611,4.6369 -5.32524,2.2597 -10.90446,3.4061 -16.62884,3.6645 -5.04853,0.2301 -9.80225,-1.1652 -14.3291,-3.3873 -2.8486,-1.4 -5.74711,-2.739 -7.89259,-5.2712 -0.62148,-0.7376 -1.10674,-0.4745 -1.67832,0.094 -7.28019,7.2725 -16.28413,10.1759 -26.09994,11.0262 -9.3713,0.8081 -18.13019,-1.6396 -26.60791,-5.4403 -4.00071,-1.7899 -7.8155,-3.9698 -11.26734,-6.7651 -1.90058,-1.5363 -3.69226,-3.2088 -5.00316,-5.3182 -0.55341,-0.8879 -0.88449,-1.0993 -1.90513,-0.5638 -3.46092,1.8041 -7.18038,2.8283 -11.06772,2.6074 -6.37305,-0.3617 -11.66194,-3.1805 -15.82598,-8.1979 -0.78468,-0.9491 -1.28819,-2.1141 -1.66924,-3.2887 -0.34471,-1.0665 -0.8573,-1.306 -1.84613,-0.9067 -1.68287,0.6765 -3.43367,1.0524 -5.23452,1.292 -6.54541,0.8785 -12.37407,-1.0524 -17.40897,-5.2148 -3.55164,-2.941 -4.27741,-7.2491 -3.4791,-11.684 1.33809,-7.4369 9.97915,-14.5732 17.03708,-14.0564 0.99338,0.075 2.19993,1.0006 2.96197,0.094 0.63504,-0.7658 -0.25854,-1.8934 -0.3357,-2.8894 -0.65314,-8.4376 2.90759,-15.1839 10.16059,-19.2007 3.34302,-1.8557 6.75858,-3.2229 10.66409,-3.2605 4.54041,-0.042 8.34157,1.5739 11.67096,4.6276 0.3357,0.3054 0.65322,0.6295 1.20662,1.1604 3.08896,-6.5443 8.29629,-9.847 15.00496,-10.2322 6.6996,-0.3853 11.92502,2.9597 16.27498,8.2919 1.26099,-2.2175 2.4449,-4.3316 3.65145,-6.4315 4.79908,-8.3391 11.82528,-13.474 20.9516,-15.5504 2.56281,-0.5827 5.0848,-0.9491 7.77468,-0.6202 4.47695,0.545 7.60225,3.0349 10.22859,6.5114 0.36742,0.4839 0.5806,1.0947 1.33354,1.4705 0.79831,-0.7047 0.9843,-1.71 1.16119,-2.7671 0.90721,-5.4685 2.43582,-10.7162 5.00317,-15.6303 3.19331,-6.1074 7.5116,-11.2047 12.63722,-15.6209 8.07403,-6.9531 17.34097,-11.3128 27.56048,-13.5725 3.22511,-0.7094 6.47733,-1.2215 9.78862,-1.3343 5.61549,-0.1879 11.2537,-0.2443 16.84201,0.1269 11.0269,0.7281 20.75653,4.5476 27.96872,13.798 1.78267,2.288 3.95079,4.2423 5.61102,6.6712 3.31121,4.8577 5.20725,10.2746 6.27779,16.0672 0.32654,1.7383 0.40824,3.5423 1.17028,5.4826"
         style="fill:#96cae4;fill-opacity:1;fill-rule:nonzero;stroke:none;stroke-width:0.0461626" /><path
         id="path6"
         d="m 272.65075,1534.4347 c 0.39238,-0.2208 0.82326,-0.39 1.17251,-0.6718 6.58443,-5.2806 14.11139,-8.0947 22.30375,-9.1659 14.98686,-1.9637 28.6065,1.635 40.73207,10.9746 5.18865,3.9933 9.22159,9.0672 12.17179,15.0571 0.52709,1.0712 0.7117,2.2081 0.97067,3.3215 0.24728,1.0664 -0.50755,1.9638 -1.50092,1.7054 -2.36414,-0.6201 -4.63798,0.1362 -6.92099,0.3665 -2.92526,0.2959 -5.84323,0.3382 -8.76387,0.3382 -19.60133,0.01 -39.20482,0.1503 -58.80334,-0.099 -45.05296,-0.5872 -90.10643,-0.2678 -135.15982,-0.3523 -27.78734,-0.051 -55.575488,0.061 -83.361028,-0.1503 -7.72427,-0.061 -15.45806,-0.1504 -23.1837,-0.3853 -1.41928,-0.043 -2.8341,-0.2584 -4.25065,-0.3993 -0.73622,-0.07 -1.35857,-0.3571 -1.42477,-1.2027 -0.0812,-1.043 -0.7815,-1.6631 -1.37623,-2.3349 -2.11967,-2.4101 -3.12386,-5.243 -3.22461,-8.4752 -0.3116,-10.0162 4.51964,-16.927 12.42218,-21.9069 3.25367,-2.0483 6.80942,-3.2463 10.70123,-3.0302 0.35884,0.019 0.75252,0.066 1.10638,-0.3289 0.13515,-0.7094 -0.39966,-1.2355 -0.71898,-1.804 -2.1682,-3.8524 -2.35598,-8.0476 -1.54542,-12.2148 1.76227,-9.0578 6.88789,-15.9074 13.89865,-21.3337 4.13001,-3.1993 8.67546,-5.492 13.84197,-6.3752 5.68487,-0.9772 10.90308,-0.1785 15.4127,3.8195 0.15829,0.141 0.38509,0.202 0.57381,0.2913 0.39238,-0.4557 0.49168,-0.9866 0.61644,-1.5175 2.2163,-9.4759 6.60887,-17.8101 12.691158,-25.1672 10.12295,-12.2524 23.14252,-19.7646 37.84719,-24.4532 6.04278,-1.9262 12.23302,-3.1429 18.51442,-3.5798 5.00274,-0.3477 10.03129,-0.3336 15.06114,0.2067 5.54482,0.5919 10.96164,1.7006 16.27555,3.3778 8.40287,2.6497 16.13572,6.6195 23.05627,12.3135 7.36369,6.0558 13.11484,13.4034 17.10422,22.1934 2.17858,4.8014 3.56844,9.8611 4.17305,15.1605 0.57699,5.055 0.57151,10.0632 -0.36742,15.0665 -0.28485,1.5175 -0.0541,1.6913 1.58897,1.3437 7.84586,-1.649 15.43001,-0.7564 22.52241,3.0536 7.54333,4.0544 13.04863,10.1102 15.65947,18.6841 1.50229,4.9329 1.56446,9.9316 0.54706,14.9584 -0.18461,0.9114 -0.52889,1.7853 -0.3416,2.739 -0.073,0.056 -0.1456,0.1127 -0.21858,0.1691 0.0425,-0.01 0.10298,0.01 0.12288,-0.024 0.0375,-0.042 0.0505,-0.1127 0.074,-0.1691"
         style="fill:#96cae4;fill-opacity:1;fill-rule:nonzero;stroke:none;stroke-width:0.0461626" /><path
         id="path7"
         d="m 298.46353,1363.0162 c 0.39237,-0.2209 0.82326,-0.39 1.17258,-0.6719 6.58435,-5.2806 14.11139,-8.0947 22.30375,-9.1658 14.98679,-1.9638 28.6065,1.6349 40.73207,10.9746 5.18865,3.9933 9.22158,9.0671 12.17172,15.0571 0.52709,1.0711 0.7117,2.2081 0.97074,3.3215 0.2472,1.0664 -0.50755,1.9638 -1.50093,1.7054 -2.3642,-0.6202 -4.63805,0.1362 -6.92098,0.3664 -2.92526,0.296 -5.84323,0.3383 -8.76394,0.3383 -19.60126,0.01 -39.20475,0.1503 -58.80327,-0.099 -45.05303,-0.5872 -90.10642,-0.2678 -135.15989,-0.3523 -27.78728,-0.051 -55.57549,0.061 -83.360958,-0.1504 -7.72427,-0.061 -15.45813,-0.1503 -23.18377,-0.3852 -1.41929,-0.042 -2.83403,-0.2584 -4.25065,-0.3994 -0.73615,-0.07 -1.3585,-0.357 -1.4247,-1.2027 -0.0812,-1.0429 -0.78158,-1.663 -1.37623,-2.3349 -2.11967,-2.41 -3.12394,-5.2429 -3.22461,-8.4752 -0.3116,-10.0161 4.51964,-16.9269 12.42218,-21.9068 3.25367,-2.0483 6.80942,-3.2463 10.70123,-3.0302 0.35884,0.019 0.75252,0.066 1.10631,-0.3289 0.13522,-0.7094 -0.39959,-1.2356 -0.71891,-1.804 -2.1682,-3.8524 -2.35598,-8.0477 -1.54542,-12.2148 1.7622,-9.0578 6.88789,-15.9075 13.89865,-21.3337 4.13001,-3.1994 8.67546,-5.492 13.84197,-6.3752 5.684868,-0.9772 10.903008,-0.1785 15.412698,3.8194 0.15829,0.141 0.38509,0.2021 0.57381,0.2914 0.39238,-0.4558 0.49168,-0.9866 0.61644,-1.5175 2.21623,-9.4759 6.60887,-17.8102 12.69116,-25.1672 10.12287,-12.2525 23.14245,-19.7646 37.84712,-24.4532 6.04285,-1.9262 12.23302,-3.143 18.51442,-3.5799 5.00274,-0.3476 10.03129,-0.3335 15.06121,0.2067 5.54475,0.5919 10.96157,1.7007 16.27548,3.3779 8.40287,2.6497 16.13579,6.6195 23.05634,12.3135 7.36362,6.0557 13.11476,13.4034 17.10414,22.1934 2.17866,4.8014 3.56845,9.8611 4.17313,15.1605 0.57699,5.055 0.57151,10.0631 -0.36742,15.0665 -0.28485,1.5175 -0.0541,1.6913 1.5889,1.3436 7.84586,-1.649 15.43001,-0.7564 22.52241,3.0537 7.54333,4.0544 13.04863,10.1102 15.65954,18.6841 1.50229,4.9328 1.56446,9.9315 0.54699,14.9584 -0.18461,0.9114 -0.52889,1.7852 -0.34153,2.7389 -0.0731,0.056 -0.1456,0.1128 -0.21866,0.1692 0.0425,-0.01 0.10298,0.01 0.12296,-0.024 0.0375,-0.042 0.0505,-0.1127 0.0739,-0.1691 z"
         style="fill:none;stroke:#96cae4;stroke-width:5.07792;stroke-linecap:butt;stroke-linejoin:miter;stroke-miterlimit:10;stroke-dasharray:none;stroke-opacity:1" /><path
         id="path8"
         d="m 242.81001,1771.6795 c -4.50378,-0.01 -9.00798,-0.014 -13.51176,-0.024 -59.549,-0.089 -119.09794,-0.1691 -178.646508,-0.2912 -6.53092,-0.014 -13.06176,-0.2772 -19.59217,-0.4323 -0.67406,-0.014 -1.34631,-0.108 -2.01943,-0.1644 -1.26236,-0.1034 -2.36961,-0.3383 -2.52747,-2.0202 -0.0447,-0.4744 -0.49846,-0.9584 -0.85953,-1.3436 -3.61244,-3.8289 -4.13909,-8.5457 -3.35211,-13.4692 1.73688,-10.8571 11.95004,-19.9524 22.59546,-20.3282 0.49355,-0.019 1.03874,0.1738 1.44244,-0.2256 0.19233,-0.3852 -0.0123,-0.6389 -0.16781,-0.8926 -2.92158,-4.7403 -3.03863,-9.8423 -1.66383,-15.0524 3.40741,-12.9196 15.57243,-23.9975 28.38294,-25.9331 5.22081,-0.7892 10.01492,0.1785 14.13223,3.8148 0.22269,0.1927 0.47668,0.3524 0.68127,0.5027 0.3778,-0.1597 0.49715,-0.4275 0.56884,-0.7375 3.372,-14.5686 11.08271,-26.2478 22.349968,-35.4278 9.57135,-7.7986 20.38147,-13.0792 32.21216,-16.0953 0.57973,-0.1457 1.15124,-0.3759 1.76904,-0.2584 0.20683,0.2207 0.39368,0.4697 0.62322,0.6624 4.21798,3.5611 8.9399,6.4692 12.34595,11.0638 1.67154,2.255 3.84335,4.1248 5.48944,6.4457 8.7413,12.3088 12.48982,25.9941 10.54474,41.2344 -1.1371,8.9121 -4.31729,16.9128 -9.96278,23.8048 -0.31161,0.3806 -0.78742,0.7423 -0.503,1.4846 7.2031,-1.6255 13.78882,0.066 19.83664,4.2564 6.06549,4.2 9.81992,10.0256 10.95255,17.5799 1.31992,-0.4463 2.26484,-1.0852 3.38831,-1.3342 3.43013,-0.7658 6.92235,-0.7282 10.30395,-0.2067 9.55952,1.4752 18.35699,5.0926 26.20739,11.0168 3.70676,2.7953 6.46919,6.4316 8.6102,10.5987 0.2798,0.545 0.57425,1.1088 0.36966,1.7712"
         style="fill:#54809c;fill-opacity:1;fill-rule:nonzero;stroke:none;stroke-width:0.0461626" /><path
         id="path9"
         d="m 242.81001,1771.6795 c 0.20459,-0.6624 -0.0899,-1.2262 -0.36966,-1.7711 -2.14101,-4.1671 -4.90344,-7.8034 -8.6102,-10.5987 -7.8504,-5.9242 -16.64787,-9.5417 -26.20739,-11.0169 -3.3816,-0.5215 -6.87382,-0.559 -10.30395,0.2067 -1.12347,0.249 -2.06839,0.888 -3.38831,1.3343 -1.13263,-7.5545 -4.88706,-13.38 -10.95255,-17.5799 -6.04782,-4.1907 -12.63354,-5.882 -19.83664,-4.2565 -0.28442,-0.7423 0.19139,-1.104 0.503,-1.4845 5.64549,-6.892 8.82568,-14.8928 9.96278,-23.8049 1.94508,-15.2403 -1.80344,-28.9256 -10.54474,-41.2344 -1.64609,-2.3208 -3.8179,-4.1906 -5.48944,-6.4457 -3.40605,-4.5946 -8.12797,-7.5027 -12.34595,-11.0638 -0.22954,-0.1926 -0.41639,-0.4416 -0.62322,-0.6624 3.20326,-1.1792 6.56626,-1.5833 9.90379,-1.9497 3.72177,-0.404 7.4648,-0.6671 11.22609,-0.559 12.39361,0.3429 24.24515,3.0489 35.30198,8.9262 12.53604,6.6664 22.10421,16.4477 28.09895,29.7619 2.03573,4.5195 3.3516,9.2833 3.94128,14.2678 0.62459,5.2806 0.64637,10.5236 -0.29257,15.7618 -0.22002,1.2309 0.0555,1.5034 1.34083,1.245 2.06111,-0.4181 4.12546,-0.8174 6.22746,-0.8315 10.2816,-0.07 19.09775,3.5047 26.09172,11.4491 4.115,4.6744 6.41293,10.1946 7.21946,16.4853 0.46579,3.6315 0.0476,7.0986 -0.8446,10.5752 -0.11481,0.4463 -0.25089,0.902 0.0216,1.3389 0.42374,0.1973 0.70809,-0.066 1.00109,-0.3054 5.73485,-4.6557 12.29115,-7.3899 19.40259,-8.743 12.76104,-2.4336 24.9342,-0.5731 36.41333,5.6987 8.36205,4.5712 15.03042,10.9792 19.40078,19.7928 0.53026,1.0711 0.72987,2.1986 0.97752,3.3214 0.23949,1.0853 -0.47949,1.9732 -1.46919,1.743 -2.12695,-0.4839 -4.16498,0.2443 -6.24015,0.3477 -1.40797,0.07 -2.82683,0.2865 -4.25066,0.2865 -31.0858,-0.014 -62.17217,-0.033 -93.25797,-0.056 -0.67175,-0.01 -1.35446,0.075 -2.00717,-0.1786"
         style="fill:#96cae4;fill-opacity:1;fill-rule:nonzero;stroke:none;stroke-width:0.0461626" /><path
         id="path8-2"
         d="m 1335.6683,1437.1848 c -73.3727,-2.5491 -209.9452,1.1472 -215.4664,1.1488 -2.3175,-0.048 -3.5516,-1.7996 -4.067,-2.3652 -12.0561,-18.8607 4.4547,-35.4847 19.179,-36.2116 0.4935,-0.019 3.4796,-0.4713 3.8833,-0.8707 0.1923,-0.3852 -0.012,-0.6389 -0.1678,-0.8926 -11.1441,-21.5051 15.0326,-48.5141 40.8513,-37.1707 0.2227,0.1927 0.4767,0.3524 0.6813,0.5027 0.3778,-0.1597 0.4972,-0.4275 0.5689,-0.7375 4.0129,-17.3374 19.5046,-43.3167 56.1338,-51.8796 24.5821,18.0959 41.6306,48.3416 19.2379,83.3092 -0.3116,0.3806 -0.7874,0.7423 -0.503,1.4846 13.3528,-3.0133 28.4496,6.2317 30.7892,21.8363 25.1638,-8.5087 50.4298,16.8268 48.8795,21.8458"
         style="fill:#37abc8;fill-opacity:1;fill-rule:nonzero;stroke:none;stroke-width:0.0461626"
         sodipodi:nodetypes="cccccccccccccc" /><path
         id="path9-2"
         d="m 1335.6683,1437.1848 c 1.4273,-4.6208 -23.3404,-30.4813 -48.8795,-21.8457 -2.3396,-15.605 -17.4366,-24.8496 -30.7892,-21.8364 -0.2844,-0.7423 0.1914,-1.104 0.503,-1.4845 20.9213,-39.1965 -5.8542,-73.5592 -19.2379,-83.3098 39.7129,-8.796 97.4896,15.4719 88.3768,66.3076 -0.22,1.2309 0.055,1.5034 1.3409,1.245 2.0611,-0.4181 4.1254,-0.8174 6.2274,-0.8315 22.1115,-0.1505 37.5654,18.6506 32.4666,38.5096 -0.1148,0.4463 -0.2509,0.902 0.022,1.3389 0.4238,0.1973 0.7081,-0.066 1.0011,-0.3054 5.7349,-4.6557 12.2912,-7.3899 19.4026,-8.743 12.761,-2.4336 24.9342,-0.5731 36.4133,5.6987 12.4785,6.8215 19.0194,16.9521 20.3783,23.1142 0.2395,1.0853 -0.4301,2.7622 -2.0116,2.532 -31.6867,1.2373 -104.2264,-0.01 -105.2135,-0.3892"
         style="fill:#87cdde;fill-opacity:1;fill-rule:nonzero;stroke:none;stroke-width:0.0461626"
         sodipodi:nodetypes="cccccccccccccccc" /><path
         id="path10"
         d="m 415.19647,2194.7871 c -0.33115,-3.345 0.83465,-6.3282 2.71706,-8.8135 3.26131,-4.3034 7.26209,-7.6107 12.82313,-8.2826 1.25191,-0.1503 2.37236,0.2678 3.56528,0.2913 1.20655,0.024 1.30635,-0.089 1.08864,-1.3154 -1.55133,-8.6584 1.65561,-15.7619 8.30537,-20.0276 3.22958,-2.0718 6.62697,-3.7209 10.40541,-4.1765 4.85801,-0.592 9.20803,0.8174 12.91393,4.1811 0.50805,0.4604 0.98884,0.9491 1.49234,1.4188 0.0498,0.047 0.13608,0.052 0.20863,0.08 5.76974,-11.9752 21.64563,-14.1785 31.24827,-2.053 1.12484,-1.2779 1.69188,-2.8799 2.54464,-4.2846 1.68286,-2.7624 3.32037,-5.5483 5.47941,-7.9585 4.71291,-5.2664 10.65501,-8.1745 17.32287,-9.7342 2.00493,-0.4698 4.00979,-0.5497 6.04191,-0.4886 4.40894,0.1409 7.91068,2.1141 10.60048,5.6987 0.63057,0.8456 1.26554,1.6866 1.90967,2.5463 1.28371,-1.3906 1.3109,-3.096 1.57852,-4.6651 1.43789,-8.3954 4.8898,-15.7806 10.21049,-22.2498 9.37577,-11.3974 21.40968,-18.0074 35.43034,-21.0189 4.71291,-1.0101 9.47565,-1.5174 14.29283,-1.3577 4.64483,0.155 9.30776,-0.2631 13.93896,0.4463 8.78169,1.3436 16.95545,3.9886 23.22416,11.0309 2.8486,3.1993 5.96027,6.1404 8.34164,9.7672 3.13432,4.7779 5.01225,10.049 5.94664,15.7101 0.21317,1.3014 0.44906,2.5981 0.75749,3.8759 0.34478,1.4 0.4355,1.4423 1.6647,0.8832 2.268,-1.0382 4.58137,-1.8979 6.97637,-2.5839 10.91346,-3.1147 21.58657,2.9926 26.44457,12.2947 2.80778,5.3839 4.76735,11.0638 5.09843,17.2276 0.0771,1.3671 0.73485,1.494 1.75549,1.3766 3.70128,-0.4135 7.17129,0.3194 10.39186,2.2644 4.69928,2.8329 8.19193,6.7322 10.06979,12.0973 0.87548,2.4853 1.49234,5.0457 2.10474,7.6108 0.43997,1.8276 0.4037,1.7571 2.10921,1.5316 5.35242,-0.7094 10.55967,-0.3101 15.05941,3.1242 4.26377,3.251 6.71315,7.653 6.84923,13.2624 -0.93893,0.3946 -1.5059,1.2591 -2.25438,1.898 -2.84853,2.4242 -6.21419,3.6927 -9.79309,3.0678 -3.18884,-0.559 -6.2007,-0.5355 -9.32593,0.2162 -2.85315,0.6811 -5.66994,0.066 -8.37338,-0.9772 -1.07054,-0.4135 -1.1159,-0.935 -0.23588,-1.649 0.70758,-0.5685 1.49234,-1.0383 2.24074,-1.5551 1.75996,-1.2168 3.37475,-2.5839 4.5314,-4.4631 0.49449,-0.7986 1.13407,-1.6912 0.42641,-2.5322 -0.62596,-0.7329 -1.40162,0.042 -2.02303,0.3664 -4.45431,2.3256 -9.11277,3.8336 -14.11139,4.3269 -3.22958,0.3195 -6.14626,-0.1222 -8.55481,-2.5087 -1.7826,-1.7712 -3.65146,-3.4672 -5.09843,-5.5766 -0.47625,-0.6906 -1.09319,-1.2779 -1.67371,-1.8839 -0.37197,-0.3899 -0.80747,-0.8034 -1.37444,-0.4745 -0.46268,0.2678 -0.35833,0.8081 -0.34925,1.2591 0.007,0.3101 0.018,0.6342 0.11337,0.9208 0.84367,2.6544 1.5876,5.351 3.10713,7.7188 0.43997,0.6906 1.04328,1.3155 1.20208,2.4007 -2.522,0.9725 -5.03944,1.9309 -7.54788,2.9127 -2.19091,0.8551 -4.27286,0.9772 -6.48642,-0.1644 -1.66924,-0.8644 -3.45638,-1.5268 -5.06209,-2.5275 -4.14594,-2.5839 -7.16689,-6.0651 -8.05592,-11.2 -0.14964,-0.8739 -0.13154,-1.5222 0.69403,-1.9638 2.88487,-1.5457 4.56312,-4.2282 6.0101,-7.0564 0.91629,-1.7899 1.85523,-3.6363 1.95503,-5.8068 -0.31298,0.052 -0.48533,0.033 -0.59877,0.1081 -5.72438,3.8711 -12.05201,6.2343 -18.64732,7.8833 -4.44976,1.1134 -8.97214,1.9919 -13.57161,1.5315 -8.69544,-0.8738 -16.32033,-4.3691 -22.9111,-10.3403 -1.72369,-1.5598 -3.37021,-3.2228 -5.10752,-4.839 -0.51252,0.7987 -0.32207,1.4 -0.11791,1.9685 1.32446,3.6551 2.90752,7.1692 5.28889,10.2322 0.75302,0.9632 1.62395,1.8323 2.48124,2.7014 0.60324,0.6108 0.55788,1.0618 0.0678,1.7853 -1.12037,1.6443 -2.6037,2.753 -4.30921,3.6315 -3.44729,1.7712 -7.126,1.743 -10.8001,1.4141 -2.39045,-0.2114 -4.76728,-0.7658 -6.75858,-2.302 -3.69227,-2.847 -7.08519,-5.99 -9.27149,-10.3121 -0.4355,-0.8691 -1.03419,-1.682 -1.95495,-2.0718 -0.70766,0.5778 -0.64413,1.3107 -0.53985,1.9919 0.56249,3.6926 1.37443,7.3195 3.08903,10.6457 0.4218,0.8127 0.56696,1.602 0.36742,2.4571 -0.61694,2.612 -1.58306,5.008 -3.77852,6.6852 -7.59316,5.8161 -15.91209,8.137 -25.21083,5.5437 -2.89843,-0.8081 -5.53386,-2.2175 -7.76559,-4.2658 0.11343,-0.2678 0.12252,-0.3711 0.17242,-0.4088 0.43997,-0.2912 0.8754,-0.5825 1.329,-0.8456 4.1776,-2.443 7.83814,-5.4685 10.33294,-9.8047 1.00701,-1.7524 1.84614,-3.5705 1.53316,-5.7081 -0.12699,-0.8692 -0.60331,-1.0946 -1.23381,-0.545 -0.79831,0.6954 -1.41979,1.6396 -2.27247,2.2362 -5.94218,4.186 -12.21535,7.437 -19.54097,8.3061 -7.30738,0.8692 -13.81197,-0.8127 -19.68152,-5.3228 -0.23135,-0.1785 -0.46724,-0.3899 -0.94802,-0.028 0.0907,1.0006 0.53977,1.9731 1.14763,2.8375 2.27702,3.237 5.0349,5.943 8.37337,8.0055 1.62842,1.01 1.71005,1.2543 0.49896,2.7858 -3.03458,3.8477 -6.6724,6.9061 -11.11769,8.8699 -5.05754,2.2363 -10.33742,3.2276 -15.81236,2.739 -5.03035,-0.4416 -9.9428,-1.3953 -14.44246,-3.9981 -3.93725,-2.2785 -7.65216,-4.8953 -11.30361,-7.6201 -1.40616,-1.0477 -1.59669,-1.1323 -2.93478,-0.019 -1.07501,0.8926 -2.34055,1.3859 -3.48364,2.1188 -2.69889,1.7335 -5.67902,2.0859 -8.68635,1.649 -2.71252,-0.3946 -5.08934,-1.8181 -7.52061,-3.5188 3.90089,-2.0672 7.17136,-4.3316 8.52762,-8.588 0.0541,-0.099 0.10882,-0.2021 0.16781,-0.3007 -0.0953,0.061 -0.19052,0.1222 -0.28124,0.1832 -0.29027,0.056 -0.62596,0.038 -0.86639,0.1832 -6.01919,3.594 -12.52371,4.8813 -19.41845,4.6464 -3.40648,-0.1174 -6.49543,-1.0711 -9.35312,-2.8752 -1.72368,-1.0899 -3.34302,-2.3583 -5.00771,-3.5376 -0.34471,-0.2443 -0.60331,-0.7422 -1.42426,-0.2913 1.16573,3.2933 3.56073,5.7129 5.92847,8.3954 -4.60402,1.5551 -8.97669,1.9872 -13.45818,0.7 -3.76488,-1.0852 -7.24845,-2.5604 -9.21711,-6.4081 -0.1769,-0.3476 -0.44906,-0.6202 -0.83004,-0.7423"
         style="fill:#96cae4;fill-opacity:1;fill-rule:nonzero;stroke:none;stroke-width:0.0461626" /><path
         id="path11"
         d="m 415.19647,2194.7871 c 0.38098,0.1221 0.65314,0.3946 0.83004,0.7423 1.96865,3.8477 5.45222,5.3228 9.21711,6.4081 4.48149,1.2872 8.85416,0.855 13.45817,-0.7 -2.36774,-2.6826 -4.76273,-5.1021 -5.92847,-8.3954 0.82096,-0.451 1.07956,0.047 1.42427,0.2913 1.66469,1.1792 3.28402,2.4477 5.00771,3.5376 2.85768,1.804 5.94664,2.7577 9.35312,2.8752 6.89473,0.2349 13.39926,-1.0524 19.41845,-4.6464 0.24043,-0.1456 0.57612,-0.1268 0.86638,-0.1832 l 0.11344,0.1175 c -1.35626,4.2564 -4.62673,6.5208 -8.52763,8.5879 2.43127,1.7008 4.8081,3.1243 7.52062,3.5188 3.00732,0.437 5.98746,0.085 8.68635,-1.6489 1.14309,-0.7329 2.40863,-1.2262 3.48364,-2.1188 1.33809,-1.1135 1.52861,-1.0289 2.93478,0.019 3.65145,2.7248 7.36636,5.3416 11.3036,7.6201 4.49967,2.6027 9.41211,3.5564 14.44247,3.998 5.47494,0.4887 10.75481,-0.5026 15.81235,-2.7389 4.44529,-1.9638 8.08312,-5.0222 11.1177,-8.8699 1.21109,-1.5315 1.12946,-1.7758 -0.49896,-2.7859 -3.33848,-2.0624 -6.09636,-4.7685 -8.37338,-8.0054 -0.60785,-0.8644 -1.05691,-1.8369 -1.14763,-2.8375 0.48079,-0.3618 0.71668,-0.1504 0.94802,0.028 5.86955,4.5101 12.37415,6.192 19.68152,5.3228 7.32562,-0.8691 13.5988,-4.1202 19.54097,-8.306 0.85269,-0.5967 1.47417,-1.541 2.27248,-2.2363 0.6305,-0.5497 1.10681,-0.3242 1.23381,0.545 0.31298,2.1376 -0.52615,3.9557 -1.53316,5.708 -2.4948,4.3363 -6.15534,7.3618 -10.33294,9.8048 -0.4536,0.263 -0.88903,0.5544 -1.329,0.8456 -0.0498,0.038 -0.0591,0.141 -0.17243,0.4088 2.23173,2.0483 4.86716,3.4577 7.76559,4.2658 9.29875,2.5932 17.61768,0.2724 25.21084,-5.5437 2.19546,-1.6772 3.16158,-4.0732 3.77852,-6.6853 0.19954,-0.855 0.0541,-1.6442 -0.36743,-2.457 -1.71459,-3.3262 -2.52653,-6.9531 -3.08903,-10.6457 -0.10427,-0.6812 -0.16781,-1.4141 0.53985,-1.9919 0.92076,0.3898 1.51946,1.2026 1.95496,2.0718 2.1863,4.3221 5.57922,7.4651 9.27149,10.3121 1.9913,1.5362 4.36812,2.0906 6.75858,2.302 3.67409,0.3289 7.3528,0.3571 10.8001,-1.4141 1.70551,-0.8785 3.18884,-1.9873 4.30921,-3.6315 0.48987,-0.7235 0.53523,-1.1746 -0.0678,-1.7853 -0.8573,-0.8691 -1.72823,-1.7382 -2.48125,-2.7014 -2.38137,-3.0631 -3.96443,-6.5772 -5.28888,-10.2323 -0.20416,-0.5684 -0.39461,-1.1697 0.1179,-1.9684 1.73732,1.6161 3.38384,3.2792 5.10752,4.839 6.59077,5.9711 14.21567,9.4665 22.9111,10.3403 4.59948,0.4604 9.12185,-0.4181 13.57162,-1.5316 6.59531,-1.6489 12.92293,-4.0121 18.64732,-7.8832 0.11344,-0.075 0.28579,-0.056 0.59877,-0.1081 -0.0998,2.1705 -1.03874,4.0168 -1.95503,5.8068 -1.44698,2.8282 -3.12523,5.5107 -6.0101,7.0564 -0.82557,0.4416 -0.84367,1.0899 -0.69403,1.9638 0.88902,5.1349 3.90998,8.6161 8.05592,11.2 1.6057,1.0007 3.39285,1.663 5.06209,2.5275 2.21355,1.1417 4.2955,1.0195 6.48642,0.1644 2.50843,-0.9818 5.02588,-1.9402 7.54787,-2.9127 -0.15879,-1.0852 -0.7621,-1.7101 -1.20208,-2.4007 -1.51952,-2.3678 -2.26346,-5.0645 -3.10713,-7.7189 -0.0953,-0.2866 -0.10889,-0.6107 -0.11336,-0.9207 -0.009,-0.451 -0.11344,-0.9913 0.34925,-1.2591 0.56697,-0.3289 1.00247,0.085 1.37443,0.4745 0.58053,0.606 1.19747,1.1933 1.67371,1.8839 1.44698,2.1094 3.31583,3.8054 5.09843,5.5765 2.40856,2.3866 5.32523,2.8282 8.55482,2.5088 4.99862,-0.4934 9.65708,-2.0014 14.11138,-4.3269 0.62142,-0.3242 1.39708,-1.0993 2.02304,-0.3664 0.70766,0.8409 0.0678,1.7335 -0.42642,2.5322 -1.15664,1.8792 -2.77144,3.2463 -4.53139,4.4631 -0.74841,0.5168 -1.53316,0.9865 -2.24075,1.5551 -0.88001,0.714 -0.83465,1.2355 0.23589,1.6489 2.70343,1.043 5.52023,1.6584 8.37337,0.9772 3.12523,-0.7516 6.1371,-0.7751 9.32594,-0.2161 3.5789,0.6249 6.94456,-0.6436 9.79309,-3.0678 0.74848,-0.6389 1.31544,-1.5034 2.25437,-1.898 0.29034,4.886 -2.77598,9.2128 -7.52061,10.4813 -2.47664,0.6624 -5.04853,0.7282 -7.58408,0.9584 -0.79384,0.07 -1.42888,0.1785 -1.78267,1.0758 -2.26339,5.7457 -7.03529,8.2356 -12.29699,10.0303 -4.4362,1.5127 -8.86325,1.5409 -13.18601,-0.451 -0.8074,-0.3712 -1.37898,-0.2396 -2.05484,0.2584 -5.95565,4.4443 -12.72787,6.098 -19.94459,6.1637 -3.72854,0.038 -7.3029,-0.7892 -10.71393,-2.3349 -0.92537,-0.4228 -1.60577,-0.5402 -2.30427,0.4651 -4.44522,6.3658 -10.91354,9.584 -17.82631,11.9941 -13.88458,4.8436 -27.65573,3.8335 -41.25915,-1.2638 -6.68142,-2.5041 -11.90237,-7.1269 -16.43831,-12.6612 -1.06138,-1.3013 -2.11375,-2.6073 -3.33393,-4.1107 -2.03204,4.6322 -6.05099,6.0041 -10.08797,7.3101 -5.05307,1.6349 -10.21951,2.6261 -15.52656,2.2269 -7.40271,-0.5544 -13.97986,-3.3403 -19.62715,-8.3531 -0.72576,-0.6436 -1.11129,-0.7047 -1.83705,-0.033 -10.60503,9.8705 -23.19689,12.5155 -36.90458,10.4578 -9.02652,-1.3577 -17.3546,-4.8484 -24.95231,-10.129 -2.69434,-1.8744 -5.25261,-3.9321 -7.03528,-6.7933 -0.6486,-1.0429 -1.14756,-1.0664 -2.15457,-0.5543 -4.20486,2.1235 -8.66371,3.1571 -13.31308,2.2832 -4.67202,-0.8785 -8.8088,-3.0208 -12.21982,-6.5208 -1.30636,-1.3342 -2.23628,-2.9316 -2.8486,-4.7074 -0.3357,-0.9678 -0.67132,-1.3766 -1.76905,-0.9396 -5.75157,2.2785 -11.4624,1.9402 -17.11871,-0.4464 -1.61025,-0.6764 -3.16612,-1.4516 -4.53594,-2.551 -3.01641,-2.4147 -4.83535,-5.4872 -4.73555,-9.5651"
         style="fill:#54809c;fill-opacity:1;fill-rule:nonzero;stroke:none;stroke-width:0.0461626" /><path
         id="path12"
         d="m 11740.3,1955 c 2,1.3 4.1,2.6 6.2,3.9 -1.3,-2.1 -2.5,-4.3 -3.7,-6.4 l -2.5,2.5"
         style="fill:#54809c;fill-opacity:1;fill-rule:nonzero;stroke:none"
         transform="matrix(0.13333333,0,0,-0.13333333,0,2666.6667)" /><path
         id="path13"
         d="m 700.97559,1718.6766 c 1.63751,-0.1738 3.18422,-0.8315 4.84437,-0.9067 9.27156,-0.4182 14.06603,3.3825 17.59503,11.294 2.00493,4.496 2.95749,9.2973 1.96858,14.3148 -0.0725,0.3805 -0.0997,0.7705 -0.12699,1.1557 -0.009,0.1456 0.0498,0.296 0.11344,0.6108 0.7303,0.089 1.3608,-0.3712 2.02757,-0.5873 8.01958,-2.5886 15.44493,-1.4375 22.11279,3.9369 3.18423,2.5652 5.57922,5.8115 7.13502,9.7343 1.42434,3.5987 1.20663,7.3054 1.09773,11.0356 -0.018,0.6766 -0.33562,0.9867 -0.93893,1.0571 -0.37651,0.042 -0.7484,0.08 -1.12491,0.094 -4.42712,0.1691 -8.84969,0.3711 -13.27674,0.4933 -27.62855,0.7658 -55.26165,0.6201 -82.8902,0.6013 -31.68817,-0.024 -63.37641,-0.085 -95.06466,0.1315 -30.85813,0.2115 -61.72081,0.3712 -92.57894,0.2021 -0.83004,-0.01 -1.65561,-0.024 -2.48118,-0.033 -0.0678,-0.4698 -0.0454,-0.9161 0.24043,-1.3296 2.58098,-3.7584 5.37968,-7.3241 9.23976,-9.7483 5.30706,-3.3309 11.16753,-4.8342 17.32734,-5.1491 6.58168,-0.3335 12.83676,0.9021 18.60651,4.3175 0.7303,0.4322 1.26099,0.3571 1.71005,-0.3758 0.20416,-0.3289 0.40824,-0.653 0.62141,-0.9725 4.00078,-5.9148 9.07649,-10.5282 15.44501,-13.5303 3.99616,-1.8885 8.22366,-3.1993 12.62352,-2.8705 5.83328,0.4417 11.37622,2.1094 15.98478,6.1169 0.92985,0.8081 1.51498,0.7845 2.15457,-0.2068 0.16781,-0.2584 0.35379,-0.5073 0.55341,-0.7376 1.85514,-2.1798 3.80563,-4.2141 6.84475,-4.4161 0.82096,-0.051 1.00701,-0.5449 0.88449,-1.2637 -0.18598,-1.0712 -0.43089,-2.1141 -0.48987,-3.2135 -0.34926,-6.1684 1.17481,-11.8531 4.06877,-17.1853 2.86216,-5.2759 7.01712,-8.8651 12.80951,-10.1524 3.87378,-0.8598 7.74741,-0.5168 11.58939,0.3758 2.54471,0.5873 4.97144,1.602 7.61134,2.5229 0.33569,-3.1712 0.65321,-6.1779 1.80077,-8.9967 2.12739,-5.2101 4.87618,-9.8235 10.36468,-11.9001 1.50597,-0.5731 1.5377,-0.6389 0.58514,-2.0436 -1.64653,-2.4242 -3.24776,-4.9 -4.37722,-7.5967 -4.0007,-9.598 -5.71984,-19.5014 -3.91452,-29.9827 1.90512,-11.092 6.38214,-20.8263 13.58971,-29.184 5.51121,-6.394 12.29705,-10.8478 20.18964,-13.4881 0.67586,-0.2254 1.52854,-0.1926 1.9414,-1.0006 7.42528,3.0396 13.52163,7.8692 18.35699,14.4605 9.40757,12.8162 13.59425,27.2014 12.19718,43.2592 -0.50351,5.7551 -1.76897,11.341 -3.91453,16.6122 0.26762,0.4322 0.53978,0.3665 0.83011,0.2537 3.27494,-1.2402 6.54534,-0.9114 9.68882,0.3618 9.54365,3.8665 15.79872,10.8101 17.96692,21.3336 0.80285,3.8853 0.57605,7.7377 -1.25191,11.3552 -0.20415,0.3992 -0.52168,0.7845 -0.25406,1.2871 -0.15872,-0.099 -0.2449,-0.056 -0.24036,0.1176 0,0.01 0.0862,0.024 0.127,0.019 0.29935,-0.038 -0.11798,0.051 0.0771,-0.1832"
         style="fill:#54809c;fill-opacity:1;fill-rule:nonzero;stroke:none;stroke-width:0.0461626" /><path
         id="path14"
         d="m 647.39234,1609.8001 c -0.41286,0.8081 -1.26554,0.7752 -1.9414,1.0008 -7.89259,2.6402 -14.67843,7.094 -20.18964,13.4879 -7.20757,8.3578 -11.68459,18.0921 -13.58971,29.184 -1.80532,10.4813 -0.0862,20.3848 3.91452,29.9828 1.12946,2.6966 2.73069,5.1725 4.37722,7.5967 0.95256,1.4047 0.92083,1.4704 -0.58514,2.0436 -5.4885,2.0765 -8.23729,6.6899 -10.36468,11.9 -1.14756,2.8189 -1.46508,5.8256 -1.80077,8.9968 -2.6399,-0.9208 -5.06663,-1.9356 -7.61134,-2.5229 -3.84198,-0.8926 -7.71561,-1.2355 -11.58939,-0.3758 -5.79239,1.2873 -9.94735,4.8765 -12.80951,10.1524 -2.89396,5.3322 -4.41803,11.0169 -4.06877,17.1853 0.0591,1.0993 0.30389,2.1423 0.48987,3.2134 0.12252,0.7188 -0.0635,1.2122 -0.88449,1.2638 -3.03912,0.202 -4.98961,2.2363 -6.84475,4.4161 -0.19962,0.2303 -0.3856,0.4793 -0.55341,0.7376 -0.63959,0.9913 -1.22472,1.0148 -2.15457,0.2067 -4.60856,-4.0073 -10.1515,-5.6751 -15.98478,-6.1168 -4.39986,-0.3288 -8.62736,0.9819 -12.62352,2.8705 -6.36852,3.002 -11.44423,7.6154 -15.44501,13.5303 -0.21317,0.3195 -0.41725,0.6436 -0.62141,0.9725 -0.44906,0.7329 -0.97975,0.808 -1.71005,0.3758 -5.76975,-3.4154 -12.02483,-4.651 -18.60651,-4.3174 -6.15981,0.3147 -12.02028,1.818 -17.32734,5.149 -3.86008,2.4241 -6.65878,5.99 -9.23976,9.7483 -0.28579,0.4135 -0.30843,0.8598 -0.24043,1.3296 -11.48504,0.024 -22.97009,0.047 -34.45059,0.061 -9.08558,0.014 -18.17108,0.028 -27.25212,0.024 -3.76481,0 -4.72192,-1.1323 -4.02789,-4.9611 0.94802,-5.2054 2.49935,-10.2323 4.45885,-15.1182 3.83289,-9.5464 9.46202,-17.8008 16.86018,-24.7397 7.86533,-7.3854 16.97355,-12.3793 27.51512,-13.8122 9.24884,-1.2638 18.07581,0.6624 26.08631,5.8819 2.03211,1.3248 3.96897,2.7859 5.84229,4.3456 0.27216,0.2256 0.52622,0.5826 1.07508,0.4276 0.36736,-3.3263 0.61233,-6.7135 1.46509,-9.9927 1.78267,-6.8497 4.52692,-13.192 9.43937,-18.2847 4.86254,-5.0362 10.75019,-8.0664 17.55868,-9.2034 8.11938,-1.353 15.82144,-0.1315 23.11072,3.8242 3.72854,2.0248 6.77668,4.8624 9.19439,8.4047 1.33809,1.9685 2.54918,4.0263 3.81472,6.0464 0.19961,0.3194 0.35834,0.6812 0.92538,0.8128 0.67585,-0.6108 1.0841,-1.5128 1.55125,-2.3679 2.6218,-4.7778 5.98299,-8.7523 11.05416,-10.8288 2.93478,-1.2028 5.96482,-2.0531 9.10823,-2.2363 0.31752,-0.8692 -0.27217,-1.3906 -0.53524,-1.992 -4.04613,-9.1893 -3.91453,-18.0639 1.96404,-26.4356 2.65353,-3.7773 5.95573,-6.7512 10.37376,-8.1934 1.34718,-0.4416 1.34718,-0.5027 0.66677,-1.7242 -4.92607,-8.8511 -4.03243,-17.5705 0.72122,-26.0834 4.15496,-7.4416 10.70938,-12.041 18.04402,-15.5598 4.92153,-2.363 10.11523,-3.9134 15.48582,-4.6839 5.37506,-0.7704 10.76383,-0.5403 16.08906,0.5215 3.23412,0.6483 6.47733,1.2967 9.57538,2.5182 0.82556,0.3241 1.75541,0.4697 2.29072,1.3389"
         style="fill:#96cae4;fill-opacity:1;fill-rule:nonzero;stroke:none;stroke-width:0.0461626" /><path
         id="path15"
         d="m 16857.9,12087.8 c -4.3,-5 4.9,-3.1 -1.7,-3.9 -0.9,-0.1 -2.8,0.2 -2.8,0.4 -0.1,3.7 1.8,4.6 5.3,2.5 0,0 -0.8,1 -0.8,1"
         style="fill:#ffffff;fill-opacity:1;fill-rule:nonzero;stroke:none"
         transform="matrix(0.13333333,0,0,-0.13333333,0,2666.6667)" /><path
         id="path16"
         d="m 5198.57,900 c 0.4,3.402 0.8,6.801 1.18,10.199 75.57,0.102 151.14,0.203 226.72,0.301 0.2,-3.5 0.4,-7 0.6,-10.5 -76.17,0 -152.34,0 -228.5,0"
         style="fill:#96cae4;fill-opacity:1;fill-rule:nonzero;stroke:none"
         transform="matrix(0.13333333,0,0,-0.13333333,0,2666.6667)" /><path
         id="path17"
         d="m 182.45043,2243.7873 c -3.42825,0.01 -6.85608,0.01 -10.2839,0.014 -5.05221,-0.4746 -9.92925,-1.7289 -14.48156,-4.0309 -10.90805,-5.5155 -16.92097,-14.7048 -18.56071,-27.0747 -0.0303,-0.2302 -0.0584,-0.465 -0.10341,-0.6906 -0.0123,-0.061 -0.0821,-0.1127 -0.21541,-0.2865 -0.61016,-0.019 -0.9222,0.592 -1.34674,0.949 -4.90293,4.1201 -10.40729,5.9899 -16.81569,6.0698 -7.21355,0.089 -13.54218,-2.3114 -19.69248,-5.6846 -6.347168,-3.4765 -10.872208,-8.945 -14.859358,-14.9631 -0.41415,-0.6249 -0.64773,-1.4001 -1.43832,-1.9122 -2.25121,1.5926 -4.64209,3.0067 -7.30471,3.8853 -3.68773,1.2168 -7.38771,1.1698 -11.09909,0.2349 -0.86134,-0.2208 -1.71683,-0.5732 -2.39586,-1.2309 1.21203,-1.7006 2.67624,-3.1805 4.27697,-4.4396 10.30705,-8.1275 21.69049,-12.4028 34.828038,-10.1477 0.9861,0.1691 1.52588,-0.1269 1.76537,-1.1886 0.58831,-2.6168 1.82342,-4.9235 3.34302,-7.0705 4.89607,-6.9108 11.18108,-11.0356 19.76272,-10.9041 9.76633,0.1504 16.6116,4.9423 21.07859,13.7229 1.13127,2.2221 1.07278,2.4664 -0.60785,4.2329 -3.13021,3.2886 -5.6509,7.0283 -7.73018,11.1014 -0.3574,0.7001 -0.60504,1.4188 -0.5348,2.2269 -0.0993,0.1691 -0.21043,0.3336 -0.28796,0.512 -0.0108,0.024 0.14192,0.1269 0.21858,0.1927 0.0692,-0.1927 0.13788,-0.3852 0.20683,-0.5779 0.71624,-0.4087 0.91311,-1.2074 1.29099,-1.8604 3.19331,-5.553 7.6417,-9.5087 13.6187,-11.543 3.90234,-1.3248 7.85271,-1.6725 11.95863,-1.1933 3.72176,0.4369 7.20172,1.3672 10.39006,3.4295 3.91279,2.537 7.00218,6.0746 10.46087,9.1612 0.61283,0.5449 1.04191,1.3201 1.53135,2.006 0.42094,0.5919 0.38236,1.1604 -0.1937,1.6349 -0.58694,0.4839 -1.22876,0.9067 -1.76269,1.4423 -0.95069,0.9631 -2.18176,1.7148 -2.80685,3.6315 7.02577,-3.7443 13.88502,-4.6839 20.97201,-2.1798 0.0862,-0.249 0.14243,-0.3242 0.12613,-0.3806 -0.0642,-0.216 -0.11026,-0.4557 -0.23589,-0.6295 -1.53856,-2.1517 -3.61337,-3.4437 -6.11221,-4.045 -2.41087,-0.5778 -4.76822,-0.2349 -7.06745,0.5544 -0.79247,0.2725 -1.32085,0.2678 -1.55854,-0.6342 -0.99612,-3.7772 -3.21963,-6.7886 -5.58377,-9.7249 -3.0904,-3.8477 -6.72144,-6.9625 -11.41163,-8.3296 -2.33875,-0.6812 -3.37518,-1.9825 -3.54256,-4.341 -0.0548,-0.7657 -0.31658,-1.5221 -0.3574,-2.2926 -0.50718,-9.5651 3.46359,-17.0114 10.44811,-22.837 3.9195,-3.2698 8.53938,-5.088 13.57565,-5.7644 8.01547,-1.0759 15.3633,0.5261 21.8715,5.6328 0.71213,0.5592 1.31768,1.2732 1.93685,1.9497 0.50033,0.545 0.53841,1.0853 -0.17459,1.5175 -0.32343,0.1973 -0.62191,0.4369 -0.94441,0.6342 -6.69418,4.106 -11.86653,9.6967 -15.27438,16.9599 -0.72627,1.5502 -1.57217,3.1006 -1.61933,5.0644 0.9439,-0.4745 1.34486,-1.2356 1.82933,-1.9074 2.51016,-3.4953 5.16196,-6.8121 8.52488,-9.537 5.78424,-4.6933 12.13321,-6.2577 19.2003,-4.2705 6.76082,1.9075 12.16221,5.9101 16.17704,11.8766 0.41142,0.6107 0.7135,1.3107 1.64198,2.0577 -0.23589,-2.3443 -0.81324,-4.1812 -1.67053,-5.8819 -0.67723,-1.3436 -0.66591,-2.5792 -0.39058,-4.0261 1.05872,-5.5625 3.63552,-10.3075 6.95091,-14.7143 2.51695,-3.3496 5.71711,-5.7268 9.52324,-7.1362 9.12178,-3.3826 17.82768,-2.2175 26.14523,2.8047 2.41541,1.4564 4.51423,3.3309 6.69469,5.1067 0.32019,0.2585 0.60735,0.7517 1.12037,0.2397 -2.87355,-7.4182 -8.7907,-11.6793 -15.22635,-15.5035 1.33225,-1.8369 2.67127,-3.3544 4.23976,-4.698 6.54679,-5.6235 13.85877,-7.39 22.05749,-4.8578 1.49868,0.4651 2.97018,1.0242 4.4543,1.5363 1.03059,1.4094 1.30549,3.1242 1.74409,4.7591 1.09362,4.0826 1.39751,8.2544 1.28415,12.4732 -0.13428,4.9987 -2.12104,9.3256 -4.4838,13.5256 -0.67175,1.1932 -1.38121,2.363 -2.17181,3.7114 1.21607,0.1644 2.22899,0.2913 3.2391,0.4322 3.73857,0.5309 7.10971,2.0437 9.99596,4.5054 5.01809,4.2799 7.55826,9.5699 5.65537,16.4525 -0.0375,0.1362 0.0195,0.2959 0.0324,0.451 0.48259,0.3758 1.01292,0.1644 1.52003,0.1174 10.3134,-0.9866 17.50878,6.6383 16.37478,17.2793 -0.60007,5.6329 -2.98194,9.9363 -7.82494,12.849 -4.45164,2.6826 -9.13044,4.3363 -14.27336,4.435 -1.19609,0.019 -1.82659,0.4369 -2.51788,1.4469 -3.74766,5.4591 -8.83426,8.8135 -15.29025,9.6451 -4.11053,0.5356 -7.60369,-1.2873 -10.92486,-3.5658 -1.05056,-0.7188 -1.81036,-2.3161 -3.00422,-2.194 -1.02605,0.1034 -1.92142,1.3719 -2.91524,2.0625 -11.79759,8.198 -27.09281,4.3503 -33.98069,-2.3913 -1.24968,-1.2215 -2.3632,-2.5746 -3.47413,-4.0404 -4.34771,6.9719 -10.41904,10.58 -18.11569,11.4773 -7.42903,0.8645 -14.42437,0.1598 -20.11111,-5.849 -6.7218,11.9188 -16.27959,18.9048 -29.28776,20.5256"
         style="fill:#54809c;fill-opacity:1;fill-rule:nonzero;stroke:none;stroke-width:0.0461626" /><path
         id="path18"
         d="m 140.03377,2196.6005 c -0.0692,-0.808 0.1787,-1.5268 0.5361,-2.2268 2.07928,-4.0732 4.59997,-7.8128 7.73018,-11.1014 1.68063,-1.7665 1.73912,-2.0107 0.60785,-4.2329 -4.46699,-8.7806 -11.31226,-13.5726 -21.07859,-13.7229 -8.58164,-0.1315 -14.86665,3.9933 -19.76272,10.9041 -1.5196,2.147 -2.75471,4.4537 -3.34302,7.0705 -0.23949,1.0618 -0.77927,1.3577 -1.76537,1.1886 -13.137548,-2.2551 -24.520988,2.0201 -34.828038,10.1477 -1.60073,1.259 -3.06494,2.7389 -4.27697,4.4396 -4.33409,-2.3255 -7.84492,-5.4403 -9.20024,-10.5376 -0.27541,-1.0336 -0.82557,-1.3061 -1.78679,-1.2779 -2.8517,0.075 -5.70707,0.042 -8.55885,0.1175 -4.47795,0.1221 -8.65325,-1.2074 -12.53063,-3.2745 -5.02993,-2.6779 -4.99185,-7.7048 -1.6828,-10.9183 3.37836,-3.2885 7.11324,-5.8724 11.58211,-7.3711 6.81073,-2.2879 13.7594,-3.6786 20.89219,-4.2094 2.76011,-0.2021 5.50616,-0.6108 8.2595,-0.9161 0.6672,-0.075 1.13898,-0.3383 1.23741,-1.0947 0.0498,-0.3852 0.13291,-0.7657 0.21181,-1.1463 1.71964,-8.2168 6.90237,-12.7504 14.54688,-14.6907 2.37683,-0.6061 4.61029,0.1691 6.86337,0.6719 2.25207,0.5026 2.16546,0.5449 2.88711,-1.6162 1.42426,-4.2611 2.9996,-8.447 5.615918,-12.1397 2.10243,-2.9643 4.79498,-5.1443 7.97336,-6.6523 3.77895,-1.7899 7.76602,-2.894 11.9491,-2.9362 5.72525,-0.062 10.22628,2.6731 13.91314,6.9671 2.54514,2.9691 4.10094,6.4786 4.60762,10.4296 0.85499,-0.01 1.00658,-0.7047 1.35763,-1.1699 3.15018,-4.1718 6.97082,-7.3006 12.18723,-8.0899 4.40844,-0.6672 8.67178,-0.066 12.71244,1.9496 1.00066,0.5027 1.9913,1.0195 3.18061,1.6302 -0.0875,-1.5033 -0.16781,-2.7765 -0.23444,-4.0496 -0.32301,-6.1168 4.12675,-11.2424 8.65454,-12.9055 1.55357,-0.5731 3.09177,-1.1792 4.74738,-1.4094 0.65091,-0.089 1.33268,-0.2208 1.90238,-0.6624 0.16464,-0.9208 -0.33793,-1.6631 -0.64275,-2.4288 -1.3921,-3.5001 -2.1038,-7.1598 -1.9414,-10.9088 0.2767,-6.3753 1.73226,-12.4826 5.09663,-17.8994 2.59547,-4.1766 6.22154,-7.3242 10.32652,-9.8847 5.2273,-3.2557 11.00195,-4.9047 16.91687,-6.0322 5.97613,-1.1369 12.00758,-1.9638 18.11028,-1.541 8.64691,0.6014 16.50141,3.345 22.68712,9.894 4.09272,4.3363 6.94045,9.4759 8.5008,15.4095 2.03118,7.7189 2.78146,15.5551 2.493,23.5135 -0.07,1.9262 -0.56841,3.8337 -0.37608,5.8068 0.70492,0.3383 1.10451,-0.2302 1.56857,-0.5356 6.05279,-3.998 12.6639,-6.2154 19.79582,-7.0799 3.72357,-0.4463 7.36182,-0.2912 10.91534,0.686 6.48779,1.7946 10.46354,6.3422 12.38771,12.9148 -1.48369,-0.5121 -2.95519,-1.0712 -4.45387,-1.5363 -8.19872,-2.5322 -15.5107,-0.7657 -22.05749,4.8577 -1.56849,1.3437 -2.90751,2.8612 -4.23976,4.6981 6.43565,3.8242 12.3528,8.0852 15.22635,15.5034 -0.51302,0.5121 -0.80018,0.019 -1.12037,-0.2396 -2.18046,-1.7759 -4.27928,-3.6504 -6.69469,-5.1067 -8.31755,-5.0222 -17.02345,-6.1873 -26.14523,-2.8047 -3.80613,1.4094 -7.00629,3.7866 -9.52324,7.1362 -3.31539,4.4067 -5.89219,9.1518 -6.95091,14.7142 -0.27533,1.447 -0.28665,2.6826 0.39058,4.0262 0.85729,1.7007 1.43464,3.5376 1.67053,5.8819 -0.92848,-0.7469 -1.23056,-1.4469 -1.64198,-2.0577 -4.01483,-5.9665 -9.41622,-9.9692 -16.17704,-11.8766 -7.06709,-1.9872 -13.41606,-0.4228 -19.2003,4.2706 -3.36292,2.7248 -6.01472,6.0415 -8.52488,9.5369 -0.48447,0.6718 -0.88543,1.4329 -1.82933,1.9074 0.0469,-1.9638 0.89306,-3.5142 1.61933,-5.0645 3.40785,-7.2631 8.5802,-12.8538 15.27438,-16.9598 0.3225,-0.1973 0.62098,-0.4369 0.94441,-0.6342 0.713,-0.4323 0.67492,-0.9725 0.17459,-1.5175 -0.61917,-0.6765 -1.22472,-1.3906 -1.93685,-1.9496 -6.5082,-5.1068 -13.85603,-6.7088 -21.8715,-5.633 -5.03627,0.6765 -9.65615,2.4946 -13.57565,5.7644 -6.98452,5.8256 -10.95529,13.2719 -10.44811,22.8371 0.0411,0.7704 0.30252,1.5269 0.3574,2.2926 0.16738,2.3584 1.20381,3.6598 3.54256,4.341 4.69019,1.3671 8.32123,4.4819 11.41163,8.3296 2.36414,2.9362 4.58765,5.9476 5.58377,9.7249 0.23769,0.902 0.76607,0.9066 1.55854,0.6342 2.29923,-0.7893 4.65658,-1.1323 7.06745,-0.5544 2.49884,0.6014 4.57365,1.8933 6.11221,4.045 0.12563,0.1738 0.17149,0.4134 0.23589,0.6295 0.0166,0.056 -0.0397,0.1316 -0.12613,0.3806 -7.08699,-2.5041 -13.94624,-1.5645 -20.97201,2.1799 0.62509,-1.9168 1.85616,-2.6686 2.80685,-3.6316 0.53393,-0.5356 1.17575,-0.9584 1.76269,-1.4423 0.57606,-0.4745 0.61464,-1.043 0.1937,-1.6349 -0.48944,-0.6859 -0.91852,-1.4611 -1.53135,-2.0061 -3.45869,-3.0866 -6.54808,-6.6242 -10.46087,-9.1611 -3.18834,-2.0624 -6.6683,-2.9926 -10.39006,-3.4295 -4.10592,-0.4792 -8.05629,-0.1316 -11.95863,1.1933 -5.977,2.0342 -10.42539,5.9899 -13.6187,11.543 -0.37788,0.653 -0.57475,1.4516 -1.29099,1.8604 l -0.13875,-0.1269"
         style="fill:#96cae4;fill-opacity:1;fill-rule:nonzero;stroke:none;stroke-width:0.0461626" /><path
         id="path19"
         d="m 4494.41,1912.2 c -1.52,-4.1 -3.04,-8.2 -4.56,-12.3 -1.69,1.4 -5.06,3.6 -4.82,4.1 1.71,3.8 4.16,7.3 6.35,10.9 -0.03,0 3.03,-2.7 3.03,-2.7"
         style="fill:#96cae4;fill-opacity:1;fill-rule:nonzero;stroke:none"
         transform="matrix(0.13333333,0,0,-0.13333333,0,2666.6667)" /><path
         style="font-size:29.7292px;font-family:Megrim;-inkscape-font-specification:Megrim;fill:#f7f7f7;fill-opacity:0.605322;stroke-width:4.10314"
         d="m 1153.6162,1811.748 v -1.7569 h 27.6955 l -10.5565,41.0516 -5.3818,-20.8478 -5.3404,20.8478 -10.5566,-41.0516 h 1.3247 l 9.2319,35.8982 5.3404,-20.8479 5.3818,20.8479 8.7764,-34.1413 z m 32.3321,5.2705 h 1.242 v 33.9656 h -1.242 z m 22.9347,32.2088 v 1.7568 h -13.8271 v -33.9656 h 1.242 v 32.2088 z m 7.9071,1.7568 h -3.1463 v -33.9656 h 3.1463 q 6.127,0 9.7699,4.5678 3.6432,4.5677 3.6432,12.415 0,7.8473 -3.6432,12.415 -3.6429,4.5678 -9.7699,4.5678 z m 0,-1.7568 q 5.5888,0 8.8592,-4.0408 3.3119,-4.0406 3.3119,-11.1852 0,-7.1445 -3.3119,-11.1853 -3.2704,-4.0407 -8.8592,-4.0407 h -1.9043 v 30.452 z m 50.0919,-5.7391 q -1.1177,3.8651 -3.1462,5.9733 -2.0285,2.1083 -6.0857,2.1083 -5.0919,0 -7.3689,-4.3922 -2.2768,-4.4506 -2.2768,-13.8204 v -5.7391 q 0,-9.3698 2.2768,-13.7619 2.277,-4.4507 7.3689,-4.4507 4.0572,0 6.0857,2.1082 2.0285,2.1082 3.1462,5.9733 l -1.1177,0.7613 q -0.9522,-3.3966 -2.6909,-5.212 -1.7388,-1.8739 -5.4233,-1.8739 -2.0284,0 -3.4774,0.7611 -1.4489,0.7029 -2.6081,2.4598 -1.1592,1.7567 -1.7387,5.0948 -0.5796,3.2794 -0.5796,8.14 v 5.7391 q 0,4.8604 0.5796,8.1985 0.5795,3.2795 1.7387,5.0363 1.1592,1.7569 2.6081,2.5182 1.449,0.7027 3.4774,0.7027 3.6845,0 5.4233,-1.8154 1.7387,-1.874 2.6909,-5.2705 z m 19.9954,5.7391 v 1.7568 h -13.827 v -33.9656 h 1.2419 v 32.2088 z m 16.8492,-30.3935 q -1.4075,-0.6441 -3.4775,-0.6441 -2.0699,0 -3.4775,0.6441 -1.4075,0.5857 -2.6081,2.284 -1.1591,1.6397 -1.7387,4.8607 -0.5796,3.1622 -0.5796,8.0228 0,4.8606 0.5796,8.0814 0.5796,3.1624 1.7387,4.8607 1.2006,1.6397 2.6081,2.2839 1.4076,0.5856 3.4775,0.5856 2.07,0 3.4775,-0.5856 1.4075,-0.6442 2.5667,-2.2839 1.2005,-1.6983 1.7801,-4.8607 0.5796,-3.2208 0.5796,-8.0814 0,-4.8606 -0.5796,-8.0228 -0.5796,-3.221 -1.7801,-4.8607 -1.1592,-1.6983 -2.5667,-2.284 z m 3.9329,28.5781 q -2.2356,4.1579 -7.4104,4.1579 -5.1748,0 -7.4103,-4.1579 -2.2356,-4.1578 -2.2356,-13.4106 0,-9.2528 2.2356,-13.4106 2.2355,-4.1578 7.4103,-4.1578 5.1748,0 7.4104,4.1578 2.2355,4.1578 2.2355,13.4106 0,9.2528 -2.2355,13.4106 z m 9.8941,-30.3934 v 16.9828 q 0,8.7257 1.9457,12.298 1.9871,3.5136 5.4232,3.5136 3.4361,0 5.3818,-3.5136 1.9871,-3.5723 1.9871,-12.298 v -16.9828 h 1.242 v 16.9828 q 0,17.5685 -8.6109,17.5685 -8.6109,0 -8.6109,-17.5685 v -16.9828 z m 26.5777,33.9656 h -3.1462 v -33.9656 h 3.1462 q 6.127,0 9.77,4.5678 3.6431,4.5677 3.6431,12.415 0,7.8473 -3.6431,12.415 -3.643,4.5678 -9.77,4.5678 z m 0,-1.7568 q 5.5888,0 8.8593,-4.0408 3.3118,-4.0406 3.3118,-11.1852 0,-7.1445 -3.3118,-11.1853 -3.2705,-4.0407 -8.8593,-4.0407 h -1.9042 v 30.452 z"
         id="text1-4"
         aria-label="Wild Cloud" /></g></g></svg>
